<svg xmlns="http://www.w3.org/2000/svg" viewBox="0 0 24 24">
  <rect width="24" height="24" fill="#f5efe2" />
  <g transform="translate(2.4 2.4) scale(0.8)" fill="none" stroke="#8a4516" stroke-width="2" stroke-linecap="round" stroke-linejoin="round">
    <path d="M7 20h10" />
    <path d="M10 20c5.5-2.5.8-6.4 3-10" />
    <path d="M9.5 9.4c1.1.8 1.8 2.2 2.3 3.7-2 .4-3.5.4-4.8-.3-1.2-.6-2.3-1.9-3-4.2 2.8-.5 4.4 0 5.5.8z" />
    <path d="M14.1 6a7 7 0 0 0-1.1 4c1.9-.1 3.3-.6 4.3-1.4 1-1 1.6-2.3 1.7-4.6-2.7.1-4 1-4.9 2z" />
  </g>
</svg>
